#!OML:ASF I:\Actors\actors\Patient Classification 2\Patient 1\Session 1\actor1.ASF
:FULLY-SPECIFIED
:DEGREES
857
root -0.863511 17.8029 6.14884 -8.94188 -4.44195 -1.56137
lowerback 0.663645 0.812799 -0.842739
upperback -0.814134 1.0882 1.34857
thorax -1.24762 0.558239 1.83482
lowerneck -13.0563 0.783655 2.52213
upperneck 30.7215 0.701851 -0.782479
head 12.3108 0.504095 -0.635345
rclavicle 4.26145e-015 1.3418e-015
rhumerus -68.9262 27.1791 -86.9563
rradius 116.126
rwrist -6.3288
rhand -13.959 -35.1622
rfingers 7.12502
rthumb 12.1686 -64.7883
lclavicle 4.26145e-015 1.3418e-015
lhumerus -70.9492 -38.6432 90.4977
lradius 119.554
lwrist 29.6373
lhand -6.95813 -23.5064
lfingers 7.12502
lthumb 18.9111 5.59428
rfemur 28.7349 0.986744 16.2747
rtibia -18.454
rfoot -11.0419 -16.8925
rtoes 0.687209
lfemur 30.37 -6.60354 -17.0402
ltibia -20.7743
lfoot -2.97199 17.8934
ltoes -9.17041
858
root -0.857145 17.8185 6.13603 -8.67371 -4.68235 -1.38151
lowerback 1.16802 0.944549 -0.813444
upperback -0.723517 1.26196 1.2776
thorax -1.44212 0.645158 1.73439
lowerneck -13.027 0.741204 2.33822
upperneck 30.0828 0.675006 -0.734878
head 12.0454 0.473411 -0.587052
rclavicle -2.57426e-014 -2.48481e-016
rhumerus -69.1576 25.0261 -87.3445
rradius 115.435
rwrist -6.21462
rhand -15.114 -34.8724
rfingers 7.12502
rthumb 11.0548 -64.5613
lclavicle -2.57426e-014 -2.48481e-016
lhumerus -71.0988 -36.5219 91.6069
lradius 118.253
lwrist 27.6217
lhand -7.74044 -24.3193
lfingers 7.12502
lthumb 18.1586 4.85314
rfemur 28.2139 0.938565 15.9813
rtibia -18.261
rfoot -10.8419 -16.6531
rtoes 0.698247
lfemur 29.906 -6.60613 -17.2836
ltibia -20.4667
lfoot -3.20266 18.1848
ltoes -8.85378
859
root -0.85477 17.8373 6.12146 -8.31152 -4.82322 -1.35937
lowerback 1.56062 1.03277 -0.7191
upperback -0.628358 1.38004 1.26004
thorax -1.56647 0.703306 1.654
lowerneck -13.0211 0.703174 2.16905
upperneck 29.3791 0.648449 -0.683051
head 11.7634 0.445406 -0.539895
rclavicle 1.74931e-014 1.09332e-014
rhumerus -69.4925 23.0037 -87.9883
rradius 114.144
rwrist -3.72884
rhand -15.2066 -34.6253
rfingers 7.12502
rthumb 10.9655 -64.319
lclavicle 1.74931e-014 1.09332e-014
lhumerus -70.9355 -34.3889 92.5185
lradius 116.773
lwrist 25.9316
lhand -8.548 -25.0721
lfingers 7.12502
lthumb 17.3815 4.17073
rfemur 27.6256 1.05657 15.9715
rtibia -18.0807
rfoot -10.8322 -16.6823
rtoes 0.831586
lfemur 29.3077 -6.65347 -17.3081
ltibia -20.1464
lfoot -3.32393 18.3904
ltoes -8.90052
860
root -0.855794 17.8529 6.10215 -8.0167 -4.99147 -1.47462
lowerback 2.0427 1.13775 -0.525136
upperback -0.525008 1.52415 1.26729
thorax -1.73107 0.773599 1.53943
lowerneck -13.0237 0.657278 2.05902
upperneck 28.6833 0.580631 -0.583585
head 11.4903 0.411884 -0.491465
rclavicle -6.22444e-015 7.95139e-016
rhumerus -69.6106 21.0127 -88.4232
rradius 112.852
rwrist -2.10379
rhand -17.5696 -32.8449
rfingers 7.12502
rthumb 8.68572 -62.6462
lclavicle -6.22444e-015 7.95139e-016
lhumerus -70.6431 -32.2362 93.2813
lradius 115.181
lwrist 24.2579
lhand -9.16777 -25.6294
lfingers 7.12502
lthumb 16.7849 3.66509
rfemur 27.098 1.28256 16.1677
rtibia -17.89
rfoot -10.9066 -16.7622
rtoes 1.30565
lfemur 28.794 -6.7436 -17.1768
ltibia -19.8383
lfoot -3.46483 18.6226
ltoes -8.71963
861
root -0.863745 17.8661 6.08505 -7.73163 -5.37277 -1.43776
lowerback 2.47261 1.32214 -0.567456
upperback -0.445052 1.76827 1.24521
thorax -1.89853 0.896187 1.52221
lowerneck -13.0364 0.610366 2.06312
upperneck 28.0187 0.509238 -0.574436
head 11.2359 0.377793 -0.496762
rclavicle 3.45388e-015 -1.1778e-014
rhumerus -69.5425 19.0245 -88.6224
rradius 111.813
rwrist -2.05824
rhand -16.8899 -34.4611
rfingers 7.12502
rthumb 9.34156 -64.2341
lclavicle 3.45388e-015 -1.1778e-014
lhumerus -70.3035 -30.0008 93.9107
lradius 113.488
lwrist 22.542
lhand -9.76428 -26.1462
lfingers 7.12502
lthumb 16.2106 3.19602
rfemur 26.5304 1.57216 16.1964
rtibia -17.6608
rfoot -10.8638 -16.6956
rtoes 1.64072
lfemur 28.3476 -6.6602 -17.1795
ltibia -19.5481
lfoot -3.71514 18.8905
ltoes -8.34178
862
root -0.868776 17.8764 6.06969 -7.5866 -5.53436 -1.36754
lowerback 3.01501 1.4091 -0.614661
upperback -0.352317 1.88102 1.19543
thorax -2.1111 0.953103 1.48016
lowerneck -12.9666 0.568171 2.16762
upperneck 27.2628 0.466281 -0.722036
head 10.9351 0.34709 -0.571982
rclavicle -2.95382e-014 1.31695e-014
rhumerus -69.5669 17.1952 -88.9781
rradius 110.493
rwrist -0.935657
rhand -20.1848 -33.4005
rfingers 7.12502
rthumb 6.16143 -63.2909
lclavicle -2.95382e-014 1.31695e-014
lhumerus -69.8359 -27.6004 94.3791
lradius 111.645
lwrist 20.9916
lhand -10.2947 -26.6922
lfingers 7.12502
lthumb 15.6998 2.6909
rfemur 26.1486 1.70178 16.1557
rtibia -17.4075
rfoot -10.9352 -16.6365
rtoes 1.72079
lfemur 28.0086 -6.6611 -17.2396
ltibia -19.254
lfoot -3.89068 19.0267
ltoes -8.30984
863
root -0.873028 17.8863 6.05652 -7.48429 -5.61268 -1.36933
lowerback 3.51363 1.45741 -0.590465
upperback -0.225341 1.94469 1.16833
thorax -2.26069 0.984284 1.42432
lowerneck -12.904 0.514347 2.16245
upperneck 26.467 0.393918 -0.729947
head 10.6243 0.308251 -0.580742
rclavicle 5.1156e-015 8.59744e-015
rhumerus -69.5528 15.4741 -89.3319
rradius 109
rwrist 0.377331
rhand -22.1819 -32.8725
rfingers 7.12502
rthumb 4.23308 -62.8102
lclavicle 5.1156e-015 8.59744e-015
lhumerus -69.1704 -25.1142 94.7069
lradius 109.667
lwrist 19.7385
lhand -10.8064 -27.2001
lfingers 7.12502
lthumb 15.207 2.22107
rfemur 25.8323 1.81548 16.2013
rtibia -17.1184
rfoot -11.0923 -16.5929
rtoes 1.6767
lfemur 27.7075 -6.7094 -17.2212
ltibia -18.9362
lfoot -4.0782 19.1196
ltoes -8.40336
864
root -0.878496 17.8992 6.04197 -7.29861 -5.60321 -1.40272
lowerback 3.9249 1.48465 -0.574699
upperback -0.127687 1.98053 1.15579
thorax -2.39117 1.0018 1.39105
lowerneck -12.9342 0.459772 2.03037
upperneck 25.7326 0.314789 -0.60793
head 10.3581 0.269405 -0.522422
rclavicle 1.73812e-014 7.50412e-015
rhumerus -69.3958 13.7883 -89.5462
rradius 107.411
rwrist 1.2349
rhand -22.9021 -32.3411
rfingers 7.12502
rthumb 3.53769 -62.2915
lclavicle 1.73812e-014 7.50412e-015
lhumerus -68.3633 -22.6944 94.9465
lradius 107.569
lwrist 18.7041
lhand -11.6176 -27.7158
lfingers 7.12502
lthumb 14.4255 1.7629
rfemur 25.4267 1.87275 16.2787
rtibia -16.8017
rfoot -11.244 -16.5541
rtoes 1.89577
lfemur 27.3124 -6.91142 -17.188
ltibia -18.6254
lfoot -4.26751 19.2966
ltoes -8.44469
865
root -0.885522 17.9153 6.02047 -7.04401 -5.24264 -1.45414
lowerback 4.40663 1.37392 -0.621776
upperback -0.119211 1.83017 1.15401
thorax -2.64977 0.928238 1.41309
lowerneck -12.962 0.424472 1.88611
upperneck 25.0479 0.262737 -0.469271
head 10.1133 0.244098 -0.453548
rclavicle -3.99744e-015 1.53561e-014
rhumerus -69.2003 12.2416 -89.7445
rradius 105.567
rwrist 2.29856
rhand -23.9734 -31.4175
rfingers 7.12502
rthumb 2.50309 -61.3826
lclavicle -3.99744e-015 1.53561e-014
lhumerus -67.5172 -20.2682 95.0544
lradius 105.39
lwrist 17.6883
lhand -12.5519 -28.3444
lfingers 7.12502
lthumb 13.5251 1.19637
rfemur 24.9572 1.73738 16.3695
rtibia -16.4269
rfoot -11.5846 -16.6275
rtoes 2.51012
lfemur 26.7517 -7.3498 -17.1275
ltibia -18.3363
lfoot -4.35788 19.3718
ltoes -8.07475
866
root -0.883389 17.9152 6.02622 -7.21413 -5.53763 -1.44385
lowerback 4.71852 1.46209 -0.46069
upperback 0.118687 1.95287 1.10099
thorax -2.57623 0.985448 1.25535
lowerneck -13.0148 0.382709 1.79953
upperneck 24.44 0.185502 -0.32072
head 9.90369 0.214028 -0.394953
rclavicle -3.0324e-014 -1.19271e-015
rhumerus -68.9685 10.7308 -89.9793
rradius 103.353
rwrist 4.37603
rhand -24.7845 -30.3114
rfingers 7.12502
rthumb 1.71969 -60.2842
lclavicle -3.0324e-014 -1.19271e-015
lhumerus -66.6651 -17.9234 95.0257
lradius 103.201
lwrist 16.6477
lhand -13.4199 -28.9137
lfingers 7.12502
lthumb 12.6884 0.680802
rfemur 24.9186 1.79961 16.3391
rtibia -16.0526
rfoot -11.6548 -16.292
rtoes 2.87377
lfemur 26.892 -7.50988 -17.2328
ltibia -18.0442
lfoot -4.91002 19.7107
ltoes -6.79896
